<svg width="54" height="54" viewBox="0 0 54 54" fill="none" xmlns="http://www.w3.org/2000/svg">
<circle cx="27" cy="27" r="27" fill="#F03030"/>
<path fill-rule="evenodd" clip-rule="evenodd" d="M41.7782 17.4848C38.7395 13.3239 33.824 10.6207 28.277 10.6207C19.0501 10.6207 11.5701 18.1006 11.5701 27.3276C11.5701 36.5545 19.0501 44.0345 28.277 44.0345C32.4875 44.0345 36.3342 42.4769 39.2724 39.9065C35.8019 43.6541 30.8393 46 25.3288 46C14.8353 46 6.32875 37.4934 6.32875 27C6.32875 16.5066 14.8353 7.99997 25.3288 7.99997C32.3552 7.99997 38.4908 11.8141 41.7782 17.4848Z" fill="white"/>
<path d="M27.9033 27.5771H23.0518V30.627H28.7822V33H19.9668V20.2031H28.7998V22.585H23.0518V25.2832H27.9033V27.5771ZM40.3926 28.667C40.3516 29.5576 40.1113 30.3457 39.6719 31.0312C39.2324 31.7109 38.6143 32.2383 37.8174 32.6133C37.0264 32.9883 36.1211 33.1758 35.1016 33.1758C33.4199 33.1758 32.0957 32.6279 31.1289 31.5322C30.1621 30.4365 29.6787 28.8896 29.6787 26.8916V26.2588C29.6787 25.0049 29.8955 23.9092 30.3291 22.9717C30.7686 22.0283 31.3984 21.3018 32.2188 20.792C33.0391 20.2764 33.9883 20.0186 35.0664 20.0186C36.6191 20.0186 37.8672 20.4287 38.8105 21.249C39.7539 22.0635 40.29 23.1885 40.4189 24.624H37.3428C37.3193 23.8447 37.123 23.2852 36.7539 22.9453C36.3848 22.6055 35.8223 22.4355 35.0664 22.4355C34.2988 22.4355 33.7363 22.7227 33.3789 23.2969C33.0215 23.8711 32.834 24.7881 32.8164 26.0479V26.9531C32.8164 28.3184 32.9863 29.2939 33.3262 29.8799C33.6719 30.4658 34.2637 30.7588 35.1016 30.7588C35.8105 30.7588 36.3525 30.5918 36.7275 30.2578C37.1025 29.9238 37.3018 29.3936 37.3252 28.667H40.3926ZM41.8516 33V20.2031H46.4482C48.0947 20.2031 49.3457 20.5049 50.2012 21.1084C51.0625 21.7119 51.4932 22.5879 51.4932 23.7363C51.4932 24.3984 51.3408 24.9639 51.0361 25.4326C50.7314 25.9014 50.2832 26.2471 49.6914 26.4697C50.3594 26.6455 50.8721 26.9736 51.2295 27.4541C51.5869 27.9346 51.7656 28.5205 51.7656 29.2119C51.7656 30.4658 51.3672 31.4092 50.5703 32.042C49.7793 32.6689 48.6045 32.9883 47.0459 33H41.8516ZM44.9365 27.5596V30.627H46.958C47.5146 30.627 47.9424 30.501 48.2412 30.249C48.54 29.9912 48.6895 29.6309 48.6895 29.168C48.6895 28.1016 48.1592 27.5654 47.0986 27.5596H44.9365ZM44.9365 25.5381H46.5449C47.2188 25.5322 47.6992 25.4092 47.9863 25.1689C48.2734 24.9287 48.417 24.5742 48.417 24.1055C48.417 23.5664 48.2617 23.1797 47.9512 22.9453C47.6406 22.7051 47.1396 22.585 46.4482 22.585H44.9365V25.5381Z" fill="white"/>
</svg>
