<svg width="59" height="38" viewBox="0 0 59 38" fill="none" xmlns="http://www.w3.org/2000/svg">
<path fill-rule="evenodd" clip-rule="evenodd" d="M35.7781 9.48486C32.7395 5.32393 27.8239 2.62069 22.277 2.62069C13.0501 2.62069 5.57012 10.1006 5.57012 19.3276C5.57012 28.5546 13.0501 36.0345 22.277 36.0345C26.4875 36.0345 30.3342 34.4769 33.2724 31.9066C29.8019 35.6541 24.8393 38 19.3288 38C8.83535 38 0.328751 29.4934 0.328751 19C0.328751 8.5066 8.83535 0 19.3288 0C26.3552 0 32.4908 3.8141 35.7781 9.48486Z" fill="#F03030"/>
<path d="M30.8926 20.9746H25.502V24.3633H31.8691V27H22.0742V12.7813H31.8887V15.4278H25.502V18.4258H30.8926V20.9746ZM44.7695 22.1856C44.724 23.1752 44.457 24.0508 43.9688 24.8125C43.4805 25.5677 42.7936 26.1537 41.9082 26.5703C41.0293 26.987 40.0234 27.1953 38.8906 27.1953C37.0221 27.1953 35.5508 26.5866 34.4766 25.3692C33.4023 24.1517 32.8652 22.433 32.8652 20.2129V19.5098C32.8652 18.1166 33.1061 16.8991 33.5879 15.8575C34.0762 14.8093 34.776 14.002 35.6875 13.4356C36.599 12.8627 37.6536 12.5762 38.8516 12.5762C40.5768 12.5762 41.9635 13.0319 43.0117 13.9434C44.0599 14.8483 44.6556 16.0983 44.7988 17.6934H41.3809C41.3548 16.8275 41.1367 16.2058 40.7266 15.8282C40.3164 15.4506 39.6914 15.2617 38.8516 15.2617C37.9987 15.2617 37.3737 15.5808 36.9766 16.2188C36.5794 16.8568 36.3711 17.8757 36.3516 19.2754V20.2813C36.3516 21.7982 36.5404 22.8822 36.918 23.5332C37.3021 24.1843 37.9596 24.5098 38.8906 24.5098C39.6784 24.5098 40.2806 24.3242 40.6973 23.9532C41.1139 23.5821 41.3353 22.9929 41.3613 22.1856H44.7695ZM46.3906 27V12.7813H51.498C53.3275 12.7813 54.7174 13.1166 55.668 13.7871C56.625 14.4577 57.1035 15.431 57.1035 16.7071C57.1035 17.4427 56.9342 18.071 56.5957 18.5918C56.2572 19.1127 55.7591 19.4968 55.1016 19.7442C55.8438 19.9395 56.4134 20.3041 56.8105 20.8379C57.2077 21.3718 57.4062 22.0228 57.4062 22.791C57.4062 24.1843 56.9635 25.2325 56.0781 25.9356C55.1992 26.6322 53.8939 26.987 52.1621 27H46.3906ZM49.8184 20.9551V24.3633H52.0645C52.6829 24.3633 53.1582 24.2233 53.4902 23.9434C53.8223 23.6569 53.9883 23.2565 53.9883 22.7422C53.9883 21.5573 53.3991 20.9616 52.2207 20.9551H49.8184ZM49.8184 18.709H51.6055C52.3542 18.7025 52.888 18.5658 53.207 18.2989C53.526 18.0319 53.6855 17.6381 53.6855 17.1172C53.6855 16.5183 53.513 16.0886 53.168 15.8282C52.8229 15.5612 52.2663 15.4278 51.498 15.4278H49.8184V18.709Z" fill="#F03030"/>
</svg>
